<svg width="32" height="32" viewBox="0 0 32 32" xmlns="http://www.w3.org/2000/svg">
  <defs>
    <linearGradient id="aiButtonGrad" x1="0%" y1="0%" x2="100%" y2="100%">
      <stop offset="0%" style="stop-color:#667eea"/>
      <stop offset="50%" style="stop-color:#764ba2"/>
      <stop offset="100%" style="stop-color:#f093fb"/>
    </linearGradient>
    <linearGradient id="circuitGrad" x1="0%" y1="0%" x2="100%" y2="100%">
      <stop offset="0%" style="stop-color:#00d4aa"/>
      <stop offset="100%" style="stop-color:#00a8ff"/>
    </linearGradient>
  </defs>
  
  <!-- Outer circle -->
  <circle cx="16" cy="16" r="15" fill="url(#aiButtonGrad)" stroke="white" stroke-width="1"/>
  
  <!-- Inner circuit pattern -->
  <g opacity="0.3">
    <rect x="8" y="8" width="16" height="1" fill="url(#circuitGrad)" rx="0.5"/>
    <rect x="8" y="11" width="12" height="1" fill="url(#circuitGrad)" rx="0.5"/>
    <rect x="8" y="14" width="16" height="1" fill="url(#circuitGrad)" rx="0.5"/>
    <rect x="8" y="17" width="10" height="1" fill="url(#circuitGrad)" rx="0.5"/>
    <rect x="8" y="20" width="14" height="1" fill="url(#circuitGrad)" rx="0.5"/>
    <rect x="8" y="23" width="8" height="1" fill="url(#circuitGrad)" rx="0.5"/>
    
    <!-- Vertical connections -->
    <rect x="12" y="8" width="1" height="15" fill="url(#circuitGrad)" rx="0.5"/>
    <rect x="20" y="8" width="1" height="12" fill="url(#circuitGrad)" rx="0.5"/>
    <rect x="16" y="11" width="1" height="9" fill="url(#circuitGrad)" rx="0.5"/>
  </g>
  
  <!-- AI Text -->
  <text x="16" y="20" font-family="Arial, sans-serif" font-size="12" font-weight="bold" 
        text-anchor="middle" fill="white" stroke="rgba(0,0,0,0.3)" stroke-width="0.5">AI</text>
  
  <!-- Neural network dots -->
  <circle cx="10" cy="10" r="1.5" fill="white" opacity="0.8"/>
  <circle cx="22" cy="10" r="1.5" fill="white" opacity="0.8"/>
  <circle cx="16" cy="6" r="1.5" fill="white" opacity="0.8"/>
  <circle cx="10" cy="26" r="1.5" fill="white" opacity="0.8"/>
  <circle cx="22" cy="26" r="1.5" fill="white" opacity="0.8"/>
  
  <!-- Connection lines -->
  <line x1="10" y1="10" x2="16" y2="6" stroke="white" stroke-width="0.5" opacity="0.6"/>
  <line x1="22" y1="10" x2="16" y2="6" stroke="white" stroke-width="0.5" opacity="0.6"/>
  <line x1="10" y1="10" x2="10" y2="26" stroke="white" stroke-width="0.5" opacity="0.6"/>
  <line x1="22" y1="10" x2="22" y2="26" stroke="white" stroke-width="0.5" opacity="0.6"/>
</svg>
